arm28_optimize_states
version=1
nRows=13
nColumns=21
inDegrees=yes

# SIMM Motion File Header:
name arm28_optimize_states
datacolumns 21
datarows 13
otherdata 1
range 0.00000000 0.00005164
endheader
time	r_shoulder_elev	r_elbow_flex	r_shoulder_elev_u	r_elbow_flex_u	TRIlong.activation	TRIlong.fiber_length	TRIlat.activation	TRIlat.fiber_length	TRImed.activation	TRImed.fiber_length	BIClong.activation	BIClong.fiber_length	BICshort.activation	BICshort.fiber_length	BRA.activation	BRA.fiber_length	DeltAnt.activation	DeltAnt.fiber_length	DeltPost.activation	DeltPost.fiber_length
      0.00000000	     85.68214899	     20.00000000	      0.00000000	      0.00000000	      0.05000000	      0.10000000	      0.05000000	      0.10000000	      0.05000000	      0.10000000	      0.05000000	      0.10000000	      0.05000000	      0.10000000	      0.05000000	      0.10000000	      0.05000000	      0.10000000	      0.05000000	      0.10000000
      0.00000249	     85.68213437	     20.00002933	    -11.57343706	     23.21927967	      0.04999857	      0.10621490	      0.04999857	      0.09999919	      0.04999857	      0.09999919	      0.04999857	      0.10062144	      0.04999857	      0.10375297	      0.04999857	      0.09999728	      0.04999857	      0.10099652	      0.04999857	      0.10888790
      0.00000498	     85.68209230	     20.00011375	    -22.07703443	     44.28895548	      0.04999714	      0.11175386	      0.04999714	      0.09999837	      0.04999714	      0.09999837	      0.04999714	      0.10122299	      0.04999714	      0.10723606	      0.04999714	      0.09999455	      0.04999714	      0.10174037	      0.04999714	      0.11664968
      0.00000797	     85.68200912	     20.00028058	    -33.30638779	     66.80033043	      0.04999542	      0.11771602	      0.04999542	      0.09999739	      0.04999542	      0.09999739	      0.04999542	      0.10192078	      0.04999542	      0.11111681	      0.04999542	      0.09999128	      0.04999542	      0.10239234	      0.04999542	      0.12485263
      0.00001096	     85.68189460	     20.00051022	    -43.05390685	     86.31681755	      0.04999370	      0.12307363	      0.04999370	      0.09999642	      0.04999370	      0.09999642	      0.04999370	      0.10259228	      0.04999370	      0.11471037	      0.04999370	      0.09998801	      0.04999370	      0.10285527	      0.04999370	      0.13206032
      0.00001562	     85.68166369	     20.00097298	    -55.46704540	    111.10780508	      0.04999102	      0.13047587	      0.04999102	      0.09999489	      0.04999102	      0.09999489	      0.04999102	      0.10358966	      0.04999102	      0.11982829	      0.04999102	      0.09998291	      0.04999102	      0.10332613	      0.04999102	      0.14161351
      0.00002091	     85.68134116	     20.00161864	    -65.89081463	    131.81992779	      0.04998798	      0.13776600	      0.04998798	      0.09999316	      0.04998798	      0.09999316	      0.04998798	      0.10465270	      0.04998798	      0.12503522	      0.04998798	      0.09997712	      0.04998798	      0.10363229	      0.04998798	      0.15021912
      0.00002620	     85.68097226	     20.00235610	    -73.12948370	    146.08490184	      0.04998494	      0.14411568	      0.04998494	      0.09999143	      0.04998494	      0.09999143	      0.04998494	      0.10564814	      0.04998494	      0.12971070	      0.04998494	      0.09997134	      0.04998494	      0.10380201	      0.04998494	      0.15664761
      0.00003078	     85.68062669	     20.00304595	    -77.42471962	    154.45491838	      0.04998231	      0.14898356	      0.04998231	      0.09998993	      0.04998231	      0.09998993	      0.04998231	      0.10645976	      0.04998231	      0.13339428	      0.04998231	      0.09996634	      0.04998231	      0.10389174	      0.04998231	      0.16065683
      0.00003536	     85.68026466	     20.00376766	    -80.38563816	    160.14548012	      0.04997967	      0.15334196	      0.04997967	      0.09998843	      0.04997967	      0.09998843	      0.04997967	      0.10722728	      0.04997967	      0.13677797	      0.04997967	      0.09996133	      0.04997967	      0.10395524	      0.04997967	      0.16347029
      0.00003994	     85.67989132	     20.00451096	    -82.42443463	    163.99990814	      0.04997704	      0.15724685	      0.04997704	      0.09998693	      0.04997704	      0.09998693	      0.04997704	      0.10795339	      0.04997704	      0.13989287	      0.04997704	      0.09995633	      0.04997704	      0.10400306	      0.04997704	      0.16536418
      0.00004579	     85.67940386	     20.00548016	    -84.17512513	    167.24858711	      0.04997368	      0.16164074	      0.04997368	      0.09998502	      0.04997368	      0.09998502	      0.04997368	      0.10882368	      0.04997368	      0.14351710	      0.04997368	      0.09994996	      0.04997368	      0.10404945	      0.04997368	      0.16685192
      0.00005164	     85.67890796	     20.00646490	    -85.36743239	    169.42913940	      0.04997032	      0.16544404	      0.04997032	      0.09998311	      0.04997032	      0.09998311	      0.04997032	      0.10963526	      0.04997032	      0.14678801	      0.04997032	      0.09994358	      0.04997032	      0.10408482	      0.04997032	      0.16768281
